:FULLY-SPECIFIED
:FORCE-ALL-JOINTS-BE-3DOF
:DEGREES
272
root 8.31161 16.209 -25.2132 21.1339 69.0379 18.7213
lfemur -24.5541 7.50499 -22.9913
ltibia 40.2935 0 0
lfoot -5.46951 -21.3481 0
ltoes 65.6689 0 0
rfemur -53.3511 -6.47205 12.9325
rtibia 86.8819 0 0
rfoot 8.12454 -0.0245674 0
rtoes 1.29506 0 0
lowerback 6.48128 -4.3513 -2.50849
upperback 1.38936 -5.97338 -1.99469
thorax -2.14269 -2.94871 -0.165808
lowerneck -5.31501 -11.1966 -4.61596
upperneck 0.695604 -14.784 5.2642
head 1.90999 -7.30379 1.87248
lclavicle 5.08292e-14 1.58988e-14 0
lhumerus -44.8284 -35.3637 106.976
lradius 59.1437 0 0
lwrist 20.2525 0 0
lhand 19.1568 14.8223 0
lfingers 7.12502 0 0
lthumb 43.7477 38.7896 0
rclavicle 5.08292e-14 1.58988e-14 0
rhumerus -53.6784 2.5035 -95.0306
rradius 42.6993 0 0
rwrist 24.5289 0 0
rhand -18.679 0.169006 0
rfingers 7.12502 0 0
rthumb 7.60334 -749.441 0
273
root 8.37451 16.1769 -25.1703 22.0072 69.947 19.9759
lfemur -24.3165 7.22544 -23.0436
ltibia 41.0689 0 0
lfoot -5.81002 -21.9942 0
ltoes 64.931 0 0
rfemur -54.1681 -5.92225 13.8013
rtibia 84.7333 0 0
rfoot 7.62339 -0.368842 0
rtoes 1.12644 0 0
lowerback 6.61692 -4.48103 -2.59743
upperback 1.55138 -6.14758 -2.0509
thorax -2.04582 -3.03518 -0.158675
lowerneck -5.14954 -11.2504 -4.73099
upperneck 0.670648 -14.8612 5.44685
head 1.90469 -7.34246 1.95352
lclavicle 4.02059e-14 1.45881e-14 0
lhumerus -44.6984 -35.4357 106.807
lradius 59.1111 0 0
lwrist 20.2969 0 0
lhand 19.5299 14.9523 0
lfingers 7.12502 0 0
lthumb 44.0963 38.7939 0
rclavicle 4.02059e-14 1.45881e-14 0
rhumerus -54.4603 3.30286 -96.133
rradius 44.4183 0 0
rwrist 23.971 0 0
rhand -22.1357 2.08647 0
rfingers 7.12502 0 0
rthumb 4.27215 -747.732 0
274
root 8.4395 16.1423 -25.1255 23.0313 70.8426 21.4534
lfemur -23.9806 6.96001 -23.0939
ltibia 41.8329 0 0
lfoot -6.34822 -22.6063 0
ltoes 63.6522 0 0
rfemur -54.677 -5.40979 14.4999
rtibia 82.6074 0 0
rfoot 7.37167 -0.590177 0
rtoes 1.37596 0 0
lowerback 6.738 -4.61229 -2.71573
upperback 1.7394 -6.3233 -2.13178
thorax -1.91208 -3.12316 -0.164029
lowerneck -4.98008 -11.3206 -4.84023
upperneck 0.669695 -14.9622 5.62359
head 1.90668 -7.39287 2.03008
lclavicle 3.07285e-14 1.19908e-14 0
lhumerus -44.5846 -35.6402 106.647
lradius 59.1166 0 0
lwrist 20.3141 0 0
lhand 19.7519 15.0959 0
lfingers 7.12502 0 0
lthumb 44.3039 38.8645 0
rclavicle 3.07285e-14 1.19908e-14 0
rhumerus -55.2369 3.9752 -97.0583
rradius 46.1277 0 0
rwrist 23.439 0 0
rhand -24.7442 3.49961 0
rfingers 7.12502 0 0
rthumb 1.75858 -746.473 0
275
root 8.50716 16.104 -25.0781 24.2286 71.7478 23.1894
lfemur -23.5454 6.70809 -23.1482
ltibia 42.6258 0 0
lfoot -7.22695 -23.1745 0
ltoes 61.4312 0 0
rfemur -54.83 -4.85969 14.9723
rtibia 80.349 0 0
rfoot 7.44898 -0.464255 0
rtoes 1.85975 0 0
lowerback 6.84713 -4.75419 -2.86864
upperback 1.96434 -6.51261 -2.23383
thorax -1.73079 -3.21857 -0.174767
lowerneck -4.81158 -11.4067 -4.94002
upperneck 0.690474 -15.086 5.7935
head 1.91568 -7.45459 2.10118
lclavicle 2.00439e-14 6.95939e-15 0
lhumerus -44.5124 -36.0123 106.53
lradius 59.1756 0 0
lwrist 20.3326 0 0
lhand 19.7868 15.2807 0
lfingers 7.12502 0 0
lthumb 44.3368 39.0402 0
rclavicle 2.00439e-14 6.95939e-15 0
rhumerus -55.9913 4.4598 -97.7497
rradius 47.8686 0 0
rwrist 22.9075 0 0
rhand -26.459 4.461 0
rfingers 7.12502 0 0
rthumb 0.10599 -745.601 0
276
root 8.57727 16.0613 -25.0279 25.5727 72.6695 25.1458
lfemur -23.0425 6.48158 -23.2035
ltibia 43.4935 0 0
lfoot -8.46772 -23.7138 0
ltoes 58.2377 0 0
rfemur -54.6505 -4.19676 15.2406
rtibia 77.8033 0 0
rfoot 7.81332 0.0708198 0
rtoes 2.36819 0 0
lowerback 6.94943 -4.91072 -3.05439
upperback 2.22363 -6.72089 -2.3435
thorax -1.50684 -3.32379 -0.176732
lowerneck -4.64917 -11.5005 -5.03032
upperneck 0.730883 -15.221 5.9545
head 1.93148 -7.52194 2.16664
lclavicle 5.83214e-15 -6.41789e-16 0
lhumerus -44.4952 -36.5278 106.478
lradius 59.2872 0 0
lwrist 20.3702 0 0
lhand 19.6559 15.5059 0
lfingers 7.12502 0 0
lthumb 44.2148 39.3114 0
rclavicle 5.83214e-15 -6.41789e-16 0
rhumerus -56.7231 4.77873 -98.2152
rradius 49.6886 0 0
rwrist 22.3375 0 0
rhand -27.5458 5.14624 0
rfingers 7.12502 0 0
rthumb -0.942272 -744.95 0
277
root 8.64907 16.0153 -24.9757 27.0286 73.5843 27.2683
lfemur -22.4848 6.28562 -23.2518
ltibia 44.4079 0 0
lfoot -9.91788 -24.2412 0
ltoes 54.5114 0 0
rfemur -54.2007 -3.47717 15.3758
rtibia 75.0866 0 0
rfoot 8.35942 0.785899 0
rtoes 3.02952 0 0
lowerback 7.04389 -5.07311 -3.26642
upperback 2.50401 -6.93661 -2.45964
thorax -1.25409 -3.43305 -0.172606
lowerneck -4.48923 -11.5994 -5.11523
upperneck 0.792687 -15.3638 6.10687
head 1.95432 -7.59329 2.22751
lclavicle -1.01297e-14 -9.57271e-15 0
lhumerus -44.5094 -37.138 106.465
lradius 59.4339 0 0
lwrist 20.4016 0 0
lhand 19.4074 15.7403 0
lfingers 7.12502 0 0
lthumb 43.9828 39.6308 0
rclavicle -1.01297e-14 -9.57271e-15 0
rhumerus -57.4509 5.00856 -98.5221
rradius 51.5588 0 0
rwrist 21.7429 0 0
rhand -28.1554 5.56204 0
rfingers 7.12502 0 0
rthumb -1.53122 -744.529 0
278
root 8.72182 15.9672 -24.9219 28.561 74.4687 29.5023
lfemur -21.8852 6.12536 -23.2855
ltibia 45.3408 0 0
lfoot -11.4248 -24.7735 0
ltoes 50.6925 0 0
rfemur -53.5431 -2.75708 15.449
rtibia 72.3151 0 0
rfoot 8.98198 1.45183 0
rtoes 3.97199 0 0
lowerback 7.12948 -5.23259 -3.49816
upperback 2.79223 -7.14821 -2.58109
thorax -0.9864 -3.54058 -0.165072
lowerneck -4.32813 -11.7008 -5.19888
upperneck 0.877652 -15.5111 6.25085
head 1.9844 -7.66702 2.28481
lclavicle -2.60643e-14 -1.85933e-14 0
lhumerus -44.5315 -37.794 106.462
lradius 59.598 0 0
lwrist 20.4016 0 0
lhand 19.0897 15.9527 0
lfingers 7.12502 0 0
lthumb 43.686 39.9508 0
rclavicle -2.60643e-14 -1.85933e-14 0
rhumerus -58.1934 5.22589 -98.7373
rradius 53.4507 0 0
rwrist 21.1378 0 0
rhand -28.4386 5.7151 0
rfingers 7.12502 0 0
rthumb -1.80586 -744.345 0
279
root 8.79478 15.9179 -24.8672 30.1349 75.2994 31.7935
lfemur -21.2566 6.00595 -23.2966
ltibia 46.2642 0 0
lfoot -12.8358 -25.3275 0
ltoes 47.2207 0 0
rfemur -52.7402 -2.09265 15.5311
rtibia 69.6053 0 0
rfoot 9.57572 1.83948 0
rtoes 5.32384 0 0
lowerback 7.20519 -5.3804 -3.74306
upperback 3.07502 -7.34414 -2.70671
thorax -0.717622 -3.64062 -0.156813
lowerneck -4.16222 -11.802 -5.28538
upperneck 0.987544 -15.6597 6.38672
head 2.02196 -7.7415 2.33961
lclavicle -4.01945e-14 -2.64637e-14 0
lhumerus -44.538 -38.4472 106.44
lradius 59.762 0 0
lwrist 20.3448 0 0
lhand 18.7511 16.1119 0
lfingers 7.12502 0 0
lthumb 43.3697 40.2243 0
rclavicle -4.01945e-14 -2.64637e-14 0
rhumerus -58.9693 5.50729 -98.9279
rradius 55.3354 0 0
rwrist 20.5363 0 0
rhand -28.546 5.61214 0
rfingers 7.12502 0 0
rthumb -1.91121 -744.407 0
280
root 8.8672 15.8685 -24.8123 31.7153 76.0527 34.0874
lfemur -20.612 5.93252 -23.2775
ltibia 47.1498 0 0
lfoot -13.9982 -25.9201 0
ltoes 44.5361 0 0
rfemur -51.8544 -1.54005 15.6932
rtibia 67.0735 0 0
rfoot 10.0354 1.71968 0
rtoes 7.2133 0 0
lowerback 7.26999 -5.50775 -3.99455
upperback 3.33913 -7.51287 -2.83532
thorax -0.461613 -3.72741 -0.150511
lowerneck -3.98789 -11.9005 -5.37884
upperneck 1.12413 -15.8063 6.51473
head 2.06723 -7.8151 2.39292
lclavicle -5.07432e-14 -3.19437e-14 0
lhumerus -44.5054 -39.0489 106.372
lradius 59.9084 0 0
lwrist 20.2059 0 0
lhand 18.4398 16.1866 0
lfingers 7.12502 0 0
lthumb 43.0788 40.4036 0
rclavicle -5.07432e-14 -3.19437e-14 0
rhumerus -59.7971 5.92937 -99.161
rradius 57.1842 0 0
rwrist 19.9524 0 0
rhand -28.6285 5.25988 0
rfingers 7.12502 0 0
rthumb -1.99228 -744.724 0
281
root 8.93834 15.8201 -24.7577 33.2669 76.7053 36.3297
lfemur -19.9642 5.91022 -23.2202
ltibia 47.9695 0 0
lfoot -14.7594 -26.5681 0
ltoes 43.0785 0 0
rfemur -50.9481 -1.15544 16.0063
rtibia 64.836 0 0
rfoot 10.2556 0.8633 0
rtoes 9.76863 0 0
lowerback 7.32287 -5.60589 -4.24608
upperback 3.57129 -7.64283 -2.96578
thorax -0.232231 -3.79519 -0.148849
lowerneck -3.80149 -11.9936 -5.48338
upperneck 1.28917 -15.9475 6.63514
head 2.12042 -7.8862 2.4458
lclavicle -5.5933e-14 -3.37934e-14 0
lhumerus -44.4102 -39.5502 106.228
lradius 60.0196 0 0
lwrist 19.9595 0 0
lhand 18.2042 16.1457 0
lfingers 7.12502 0 0
lthumb 42.8586 40.4414 0
rclavicle -5.5933e-14 -3.37934e-14 0
rhumerus -60.6956 6.56869 -99.5037
rradius 58.9686 0 0
rwrist 19.4001 0 0
rhand -28.8368 4.66501 0
rfingers 7.12502 0 0
rthumb -2.19408 -745.303 0
282
root 9.01126 15.771 -24.7023 35.019 77.2859 38.7996
lfemur -19.2602 5.92856 -23.1189
ltibia 48.7397 0 0
lfoot -15.0702 -27.3193 0
ltoes 43.0396 0 0
rfemur -49.8991 -0.933285 16.4611
rtibia 62.8419 0 0
rfoot 10.2882 -1.01279 0
rtoes 13.3999 0 0
lowerback 7.36406 -5.67888 -4.50791
upperback 3.78215 -7.73878 -3.10846
thorax -0.0178983 -3.84647 -0.157699
lowerneck -3.58392 -12.0899 -5.60706
upperneck 1.5091 -16.0963 6.73817
head 2.18782 -7.96173 2.49598
lclavicle -5.36972e-14 -3.09564e-14 0
lhumerus -44.2495 -39.9903 106.011
lradius 60.0966 0 0
lwrist 19.516 0 0
lhand 17.994 15.926 0
lfingers 7.12502 0 0
lthumb 42.662 40.2913 0
rclavicle -5.36972e-14 -3.09564e-14 0
rhumerus -61.6997 7.36095 -99.9438
rradius 60.7375 0 0
rwrist 18.8404 0 0
rhand -29.1143 3.65843 0
rfingers 7.12502 0 0
rthumb -2.46206 -746.309 0
283
root 9.08765 15.7197 -24.6452 37.0792 77.825 41.6385
lfemur -18.4707 5.97948 -22.9784
ltibia 49.491 0 0
lfoot -15.0499 -28.1745 0
ltoes 44.0923 0 0
rfemur -48.6111 -0.82182 16.9914
rtibia 60.9709 0 0
rfoot 10.244 -3.79928 0
rtoes 18.13 0 0
lowerback 7.39455 -5.73588 -4.7893
upperback 3.98706 -7.81258 -3.26783
thorax 0.197561 -3.88723 -0.176634
lowerneck -3.33203 -12.1946 -5.7489
upperneck 1.79114 -16.26 6.82033
head 2.27131 -8.04545 2.54177
lclavicle -4.49267e-14 -2.41828e-14 0
lhumerus -44.0433 -40.4256 105.745
lradius 60.1555 0 0
lwrist 18.8681 0 0
lhand 17.7494 15.5342 0
lfingers 7.12502 0 0
lthumb 42.4333 39.9799 0
rclavicle -4.49267e-14 -2.41828e-14 0
rhumerus -62.8046 8.21662 -100.418
rradius 62.5328 0 0
rwrist 18.2479 0 0
rhand -29.308 2.17781 0
rfingers 7.12502 0 0
rthumb -2.64912 -747.788 0
284
root 9.16469 15.6676 -24.5873 39.23 78.3016 44.5853
lfemur -17.6446 6.07174 -22.8074
ltibia 50.2162 0 0
lfoot -14.7985 -29.0805 0
ltoes 45.8981 0 0
rfemur -47.1855 -0.807855 17.5828
rtibia 59.2351 0 0
rfoot 10.1063 -7.13666 0
rtoes 23.5058 0 0
lowerback 7.41443 -5.77574 -5.08216
upperback 4.17978 -7.86331 -3.43392
thorax 0.407189 -3.91685 -0.198887
lowerneck -3.06615 -12.2999 -5.89947
upperneck 2.1083 -16.4267 6.89131
head 2.36455 -8.13097 2.58509
lclavicle -3.22806e-14 -1.49423e-14 0
lhumerus -43.8022 -40.8331 105.44
lradius 60.2009 0 0
lwrist 18.1137 0 0
lhand 17.5047 15.0439 0
lfingers 7.12502 0 0
lthumb 42.2044 39.5695 0
rclavicle -3.22806e-14 -1.49423e-14 0
rhumerus -63.969 9.1745 -100.915
rradius 64.3149 0 0
rwrist 17.6569 0 0
rhand -29.4243 0.390006 0
rfingers 7.12502 0 0
rthumb -2.7615 -749.575 0
